<svg xmlns="http://www.w3.org/2000/svg" viewBox="0 0 24 24" fill="currentColor">
  <path d="M11.4.002C5.3.202.4 5.001.1 11.101c-.1 2.3.4 4.5 1.5 6.4L.1 23l5.7-1.5c1.8.9 3.8 1.4 5.8 1.4C17.5 22.9 22.5 17.9 22.9 12c.3-6.2-4.5-11.7-11.5-12zm5.6 15.5c-.3.8-1.6 1.5-2.2 1.6-.6.1-1.1.35-3.7-.8-3.1-1.4-5.1-4.5-5.3-4.7-.2-.2-1.3-1.7-1.3-3.3s1-2.5 1.3-2.8c.4-.4.8-.5 1.1-.5.3 0 .5 0 .8.01.3.01.6-.1.9.7.3.8 1.1 2.8 1.2 3 .1.2.15.45-.05.7-.15.25-.25.4-.45.6-.2.2-.4.45-.2.85.2.4 1.1 1.8 2.3 2.9 1.6 1.4 2.9 1.9 3.3 2.1.4.2.65.15.9-.1.25-.25 1-.15 1.3-1.6.3-.4.5-.3.9-.2.4.1 2.5 1.2 2.9 1.4l.6.3c.2.1.3.5 0 1.3z"/>
</svg>
